<svg width="25" height="24" viewBox="0 0 25 24" fill="none" xmlns="http://www.w3.org/2000/svg">
<path opacity="0.2" d="M13.2755 20.2502H5.37233C5.27718 20.2514 5.18275 20.2336 5.09459 20.1978C5.00644 20.162 4.92636 20.1088 4.85908 20.0416C4.79179 19.9743 4.73867 19.8942 4.70284 19.806C4.667 19.7179 4.64919 19.6235 4.65045 19.5283V11.6252C4.65045 9.33769 5.55916 7.14389 7.17666 5.52639C8.79416 3.90889 10.988 3.00018 13.2755 3.00018C14.4081 3.00018 15.5297 3.22328 16.5761 3.65672C17.6225 4.09017 18.5733 4.72548 19.3742 5.52639C20.1752 6.32729 20.8105 7.27811 21.2439 8.32454C21.6774 9.37097 21.9005 10.4925 21.9005 11.6252C21.9005 12.7578 21.6774 13.8794 21.2439 14.9258C20.8105 15.9723 20.1752 16.9231 19.3742 17.724C18.5733 18.5249 17.6225 19.1602 16.5761 19.5936C15.5297 20.0271 14.4081 20.2502 13.2755 20.2502Z" fill="white"/>
<path d="M13.2755 20.2502H5.37233C5.27718 20.2514 5.18275 20.2336 5.09459 20.1978C5.00644 20.162 4.92636 20.1088 4.85908 20.0416C4.79179 19.9743 4.73867 19.8942 4.70284 19.806C4.667 19.7179 4.64919 19.6235 4.65045 19.5283V11.6252C4.65045 9.33769 5.55916 7.14389 7.17666 5.52639C8.79416 3.90889 10.988 3.00018 13.2755 3.00018V3.00018C14.4081 3.00018 15.5297 3.22328 16.5761 3.65672C17.6225 4.09017 18.5733 4.72548 19.3742 5.52639C20.1752 6.32729 20.8105 7.27811 21.2439 8.32454C21.6774 9.37097 21.9005 10.4925 21.9005 11.6252V11.6252C21.9005 12.7578 21.6774 13.8794 21.2439 14.9258C20.8105 15.9723 20.1752 16.9231 19.3742 17.724C18.5733 18.5249 17.6225 19.1602 16.5761 19.5936C15.5297 20.0271 14.4081 20.2502 13.2755 20.2502V20.2502Z" stroke="#7C7C7C" stroke-width="1.5" stroke-linecap="round" stroke-linejoin="round"/>
<path d="M13.2754 13.125C13.8967 13.125 14.4004 12.6213 14.4004 12C14.4004 11.3787 13.8967 10.875 13.2754 10.875C12.6541 10.875 12.1504 11.3787 12.1504 12C12.1504 12.6213 12.6541 13.125 13.2754 13.125Z" fill="#7C7C7C"/>
<path d="M8.77539 13.125C9.39671 13.125 9.90039 12.6213 9.90039 12C9.90039 11.3787 9.39671 10.875 8.77539 10.875C8.15407 10.875 7.65039 11.3787 7.65039 12C7.65039 12.6213 8.15407 13.125 8.77539 13.125Z" fill="#7C7C7C"/>
<path d="M17.7754 13.125C18.3967 13.125 18.9004 12.6213 18.9004 12C18.9004 11.3787 18.3967 10.875 17.7754 10.875C17.1541 10.875 16.6504 11.3787 16.6504 12C16.6504 12.6213 17.1541 13.125 17.7754 13.125Z" fill="#7C7C7C"/>
</svg>
