<svg width="40" height="40" viewBox="0 0 40 40" fill="none" xmlns="http://www.w3.org/2000/svg">
<rect width="40" height="40" rx="12" fill="#877BCB"/>
<path d="M20 24.6796C19.7978 24.8098 19.5892 24.9297 19.375 25.0389V28.1249C19.375 28.2906 19.4408 28.4496 19.5581 28.5668C19.6753 28.684 19.8342 28.7499 20 28.7499C20.1658 28.7499 20.3247 28.684 20.4419 28.5668C20.5592 28.4496 20.625 28.2906 20.625 28.1249V25.0389C20.4108 24.9297 20.2022 24.8098 20 24.6796Z" fill="white"/>
<path d="M25.4766 14.8907C25.0245 13.8112 24.2634 12.8894 23.289 12.2411C22.3146 11.5928 21.1704 11.2469 20 11.2469C18.8297 11.2469 17.6854 11.5928 16.711 12.2411C15.7366 12.8894 14.9756 13.8112 14.5235 14.8907C13.5506 15.3415 12.7262 16.0599 12.1466 16.9619C11.5669 17.8639 11.2559 18.9123 11.25 19.9845C11.2422 23.0157 13.7031 25.547 16.7266 25.6251C17.644 25.6491 18.5533 25.4479 19.375 25.0392V22.2579L15.9688 20.5626C15.8196 20.488 15.7061 20.3572 15.6534 20.199C15.6273 20.1206 15.6169 20.0379 15.6227 19.9555C15.6286 19.8731 15.6506 19.7927 15.6875 19.7188C15.7245 19.645 15.7756 19.5791 15.838 19.525C15.9004 19.4709 15.9728 19.4296 16.0511 19.4035C16.2094 19.3507 16.3821 19.363 16.5313 19.4376L19.375 20.8673V16.8751C19.375 16.7093 19.4409 16.5504 19.5581 16.4332C19.6753 16.3159 19.8343 16.2501 20 16.2501C20.1658 16.2501 20.3248 16.3159 20.442 16.4332C20.5592 16.5504 20.625 16.7093 20.625 16.8751V18.9923L23.4688 17.5626C23.618 17.488 23.7907 17.4757 23.9489 17.5285C24.1071 17.5812 24.2379 17.6947 24.3125 17.8438C24.3871 17.993 24.3994 18.1657 24.3466 18.324C24.2939 18.4822 24.1805 18.613 24.0313 18.6876L20.625 20.3829V25.0392C21.402 25.4246 22.2577 25.6251 23.125 25.6251H23.2735C26.2969 25.547 28.7578 23.0157 28.75 19.9845C28.7441 18.9123 28.4331 17.8639 27.8535 16.9619C27.2738 16.0599 26.4494 15.3415 25.4766 14.8907Z" fill="white"/>
</svg>
