<svg width="40" height="40" viewBox="0 0 40 40" fill="none" xmlns="http://www.w3.org/2000/svg">
<rect width="40" height="40" rx="12" fill="#63A1A9"/>
<path d="M20.3125 11.875C18.2418 11.8791 16.257 12.7036 14.7928 14.1678C13.3286 15.632 12.5041 17.6168 12.5 19.6875V26.2734C12.5 26.5987 12.6292 26.9107 12.8593 27.1407C13.0893 27.3708 13.4013 27.5 13.7266 27.5H20.3125C22.3845 27.5 24.3716 26.6769 25.8368 25.2118C27.3019 23.7466 28.125 21.7595 28.125 19.6875C28.125 17.6155 27.3019 15.6284 25.8368 14.1632C24.3716 12.6981 22.3845 11.875 20.3125 11.875ZM16.5625 20.9375C16.3771 20.9375 16.1958 20.8825 16.0417 20.7795C15.8875 20.6765 15.7673 20.5301 15.6964 20.3588C15.6254 20.1875 15.6068 19.999 15.643 19.8171C15.6792 19.6352 15.7685 19.4682 15.8996 19.3371C16.0307 19.206 16.1977 19.1167 16.3796 19.0805C16.5615 19.0443 16.75 19.0629 16.9213 19.1339C17.0926 19.2048 17.239 19.325 17.342 19.4792C17.445 19.6333 17.5 19.8146 17.5 20C17.5 20.2486 17.4012 20.4871 17.2254 20.6629C17.0496 20.8387 16.8111 20.9375 16.5625 20.9375ZM20.3125 20.9375C20.1271 20.9375 19.9458 20.8825 19.7917 20.7795C19.6375 20.6765 19.5173 20.5301 19.4464 20.3588C19.3754 20.1875 19.3568 19.999 19.393 19.8171C19.4292 19.6352 19.5185 19.4682 19.6496 19.3371C19.7807 19.206 19.9477 19.1167 20.1296 19.0805C20.3115 19.0443 20.5 19.0629 20.6713 19.1339C20.8426 19.2048 20.989 19.325 21.092 19.4792C21.195 19.6333 21.25 19.8146 21.25 20C21.25 20.2486 21.1512 20.4871 20.9754 20.6629C20.7996 20.8387 20.5611 20.9375 20.3125 20.9375ZM24.0625 20.9375C23.8771 20.9375 23.6958 20.8825 23.5417 20.7795C23.3875 20.6765 23.2673 20.5301 23.1964 20.3588C23.1254 20.1875 23.1068 19.999 23.143 19.8171C23.1792 19.6352 23.2685 19.4682 23.3996 19.3371C23.5307 19.206 23.6977 19.1167 23.8796 19.0805C24.0615 19.0443 24.25 19.0629 24.4213 19.1339C24.5926 19.2048 24.739 19.325 24.842 19.4792C24.945 19.6333 25 19.8146 25 20C25 20.2486 24.9012 20.4871 24.7254 20.6629C24.5496 20.8387 24.3111 20.9375 24.0625 20.9375Z" fill="white"/>
</svg>
