<svg width="48" height="48" viewBox="0 0 48 48" fill="none" xmlns="http://www.w3.org/2000/svg">
<g filter="url(#filter0_d_2105_124)">
<rect x="4" y="2" width="40" height="40" rx="12" fill="white"/>
</g>
<path d="M17.8302 19.9376C17.829 19.1225 17.9892 18.3153 18.3013 17.5624C18.6135 16.8095 19.0715 16.1258 19.649 15.5507C20.2266 14.9756 20.9122 14.5204 21.6664 14.2113C22.4206 13.9023 23.2284 13.7456 24.0435 13.7501C27.4466 13.7759 30.1708 16.6032 30.1708 20.0149V20.6251C30.1708 23.7017 30.8154 25.4892 31.3825 26.4688C31.4428 26.5732 31.4745 26.6915 31.4746 26.812C31.4748 26.9325 31.4432 27.0509 31.3831 27.1553C31.3231 27.2597 31.2366 27.3466 31.1325 27.4071C31.0283 27.4676 30.91 27.4997 30.7896 27.5001H17.2114C17.091 27.4997 16.9727 27.4676 16.8685 27.4071C16.7644 27.3466 16.6779 27.2597 16.6179 27.1553C16.5578 27.0509 16.5263 26.9325 16.5264 26.812C16.5265 26.6915 16.5582 26.5732 16.6185 26.4688C17.1857 25.4892 17.8302 23.7017 17.8302 20.6251V19.9376Z" stroke="#7C7C7C" stroke-width="1.5" stroke-linecap="round" stroke-linejoin="round"/>
<path d="M21.25 27.5V28.1875C21.25 28.9168 21.5397 29.6163 22.0555 30.132C22.5712 30.6478 23.2707 30.9375 24 30.9375C24.7293 30.9375 25.4288 30.6478 25.9445 30.132C26.4603 29.6163 26.75 28.9168 26.75 28.1875V27.5" stroke="#7C7C7C" stroke-width="1.5" stroke-linecap="round" stroke-linejoin="round"/>
<defs>
<filter id="filter0_d_2105_124" x="0" y="0" width="48" height="48" filterUnits="userSpaceOnUse" color-interpolation-filters="sRGB">
<feFlood flood-opacity="0" result="BackgroundImageFix"/>
<feColorMatrix in="SourceAlpha" type="matrix" values="0 0 0 0 0 0 0 0 0 0 0 0 0 0 0 0 0 0 127 0" result="hardAlpha"/>
<feOffset dy="2"/>
<feGaussianBlur stdDeviation="2"/>
<feComposite in2="hardAlpha" operator="out"/>
<feColorMatrix type="matrix" values="0 0 0 0 0 0 0 0 0 0 0 0 0 0 0 0 0 0 0.16 0"/>
<feBlend mode="normal" in2="BackgroundImageFix" result="effect1_dropShadow_2105_124"/>
<feBlend mode="normal" in="SourceGraphic" in2="effect1_dropShadow_2105_124" result="shape"/>
</filter>
</defs>
</svg>
