<svg width="25" height="24" viewBox="0 0 25 24" fill="none" xmlns="http://www.w3.org/2000/svg">
<path opacity="0.2" d="M20.4066 10.275L12.9066 3.45933C12.7684 3.33284 12.5878 3.2627 12.4004 3.2627C12.213 3.2627 12.0324 3.33284 11.8941 3.45933L4.39414 10.275C4.31867 10.3462 4.25822 10.4319 4.21636 10.5269C4.1745 10.6219 4.15207 10.7243 4.15039 10.8281V19.5C4.15039 19.6989 4.22941 19.8896 4.37006 20.0303C4.51071 20.1709 4.70148 20.25 4.90039 20.25H19.9004C20.0993 20.25 20.2901 20.1709 20.4307 20.0303C20.5714 19.8896 20.6504 19.6989 20.6504 19.5V10.8281C20.6487 10.7243 20.6263 10.6219 20.5844 10.5269C20.5426 10.4319 20.4821 10.3462 20.4066 10.275Z" fill="#FFA492"/>
<path d="M20.4066 10.275L12.9066 3.45933C12.7684 3.33284 12.5878 3.2627 12.4004 3.2627C12.213 3.2627 12.0324 3.33284 11.8941 3.45933L4.39414 10.275C4.31867 10.3462 4.25822 10.4319 4.21636 10.5269C4.1745 10.6219 4.15207 10.7243 4.15039 10.8281V19.5C4.15039 19.6989 4.22941 19.8896 4.37006 20.0303C4.51071 20.1709 4.70148 20.25 4.90039 20.25H19.9004C20.0993 20.25 20.2901 20.1709 20.4307 20.0303C20.5714 19.8896 20.6504 19.6989 20.6504 19.5V10.8281C20.6487 10.7243 20.6263 10.6219 20.5844 10.5269C20.5426 10.4319 20.4821 10.3462 20.4066 10.275V10.275Z" stroke="#CE6E59" stroke-width="1.5" stroke-linecap="round" stroke-linejoin="round"/>
</svg>
