<svg width="20" height="20" viewBox="0 0 20 20" fill="none" xmlns="http://www.w3.org/2000/svg">
<mask id="mask0_2178_367" style="mask-type:alpha" maskUnits="userSpaceOnUse" x="0" y="0" width="20" height="20">
<path fill-rule="evenodd" clip-rule="evenodd" d="M3.33333 4.37508C2.98816 4.37508 2.70833 4.6549 2.70833 5.00007V16.6666C2.70833 17.0117 2.98816 17.2915 3.33333 17.2915H15C15.3452 17.2915 15.625 17.0117 15.625 16.6666V10.8333C15.625 10.258 16.0914 9.79166 16.6667 9.79166C17.242 9.79166 17.7083 10.258 17.7083 10.8333V16.6666C17.7083 18.1623 16.4958 19.3748 15 19.3748H3.33333C1.83756 19.3748 0.625 18.1623 0.625 16.6666V5.00007C0.625 3.50433 1.83756 2.29178 3.33333 2.29178H9.16667C9.74196 2.29178 10.2083 2.75815 10.2083 3.33343C10.2083 3.90872 9.74196 4.37508 9.16667 4.37508H3.33333Z" fill="#006FFD"/>
<path d="M10.9122 11.9173L16.8688 5.96087L14.0395 3.13168L8.083 9.0881C8.001 9.17021 7.94275 9.27298 7.91443 9.38551L7.25423 12.7461L10.6142 12.0859C10.727 12.0577 10.8302 11.9993 10.9122 11.9173ZM18.7917 4.03799C19.032 3.7976 19.167 3.47159 19.167 3.13168C19.167 2.79176 19.032 2.46576 18.7917 2.22536L17.7751 1.2088C17.5347 0.968479 17.2087 0.833473 16.8688 0.833473C16.5288 0.833473 16.2028 0.968479 15.9624 1.2088L14.9459 2.22536L17.7751 5.05455L18.7917 4.03799Z" fill="#006FFD"/>
</mask>
<g mask="url(#mask0_2178_367)">
<rect y="0.000152588" width="20" height="19.9997" fill="#CF6F5A"/>
</g>
</svg>
