<svg width="25" height="24" viewBox="0 0 25 24" fill="none" xmlns="http://www.w3.org/2000/svg">
<path d="M12.9004 21.75V8.25" stroke="#7C7C7C" stroke-width="1.5" stroke-linecap="round" stroke-linejoin="round"/>
<path d="M12.9004 14.25L8.40039 12" stroke="#7C7C7C" stroke-width="1.5" stroke-linecap="round" stroke-linejoin="round"/>
<path d="M12.9004 12L17.4004 9.75" stroke="#7C7C7C" stroke-width="1.5" stroke-linecap="round" stroke-linejoin="round"/>
<path d="M13.3219 16.9876C14.01 17.4563 14.7881 17.7766 15.6068 17.9283C16.4254 18.0799 17.2666 18.0595 18.0769 17.8684C18.8872 17.6773 19.6489 17.3196 20.3135 16.8182C20.9781 16.3167 21.531 15.6824 21.9372 14.9557C22.3433 14.2289 22.5938 13.4256 22.6726 12.5968C22.7514 11.768 22.6569 10.9318 22.3951 10.1415C22.1332 9.35124 21.7098 8.62409 21.1516 8.00633C20.5935 7.38857 19.9129 6.89372 19.1532 6.55326C18.9864 6.46939 18.8538 6.33022 18.7782 6.15951C18.2922 5.00166 17.475 4.01314 16.4293 3.31797C15.3835 2.6228 14.1558 2.25195 12.9001 2.25195C11.6444 2.25195 10.4166 2.6228 9.37086 3.31797C8.32512 4.01314 7.50797 5.00166 7.02195 6.15951C6.94631 6.33022 6.81377 6.46939 6.64695 6.55326C5.8872 6.89372 5.20662 7.38857 4.64849 8.00633C4.09037 8.62409 3.66692 9.35124 3.40507 10.1415C3.14322 10.9318 3.04871 11.768 3.12755 12.5968C3.20638 13.4256 3.45684 14.2289 3.86298 14.9557C4.26913 15.6824 4.82208 16.3167 5.48666 16.8182C6.15125 17.3196 6.91291 17.6773 7.72323 17.8684C8.53354 18.0595 9.37475 18.0799 10.1934 17.9283C11.012 17.7766 11.7901 17.4563 12.4782 16.9876C12.6035 16.9054 12.7502 16.8615 12.9001 16.8615C13.05 16.8615 13.1966 16.9054 13.3219 16.9876Z" stroke="#7C7C7C" stroke-width="1.5" stroke-linecap="round" stroke-linejoin="round"/>
</svg>
