<svg width="25" height="24" viewBox="0 0 25 24" fill="none" xmlns="http://www.w3.org/2000/svg">
<path d="M12.4004 16.875C14.4715 16.875 16.1504 15.1961 16.1504 13.125C16.1504 11.0539 14.4715 9.375 12.4004 9.375C10.3293 9.375 8.65039 11.0539 8.65039 13.125C8.65039 15.1961 10.3293 16.875 12.4004 16.875Z" stroke="#7C7C7C" stroke-width="1.5" stroke-linecap="round" stroke-linejoin="round"/>
<path d="M18.7754 10.875C19.6489 10.8735 20.5107 11.0762 21.292 11.4669C22.0733 11.8575 22.7525 12.4253 23.2754 13.125" stroke="#7C7C7C" stroke-width="1.5" stroke-linecap="round" stroke-linejoin="round"/>
<path d="M1.52539 13.125C2.04833 12.4253 2.72753 11.8575 3.50882 11.4669C4.29011 11.0762 5.15188 10.8735 6.02539 10.875" stroke="#7C7C7C" stroke-width="1.5" stroke-linecap="round" stroke-linejoin="round"/>
<path d="M7.00098 20.2496C7.49487 19.2381 8.26293 18.3856 9.21764 17.7894C10.1724 17.1931 11.2754 16.877 12.401 16.877C13.5266 16.877 14.6296 17.1931 15.5843 17.7894C16.539 18.3856 17.3071 19.2381 17.801 20.2496" stroke="#7C7C7C" stroke-width="1.5" stroke-linecap="round" stroke-linejoin="round"/>
<path d="M6.02551 10.875C5.45611 10.8756 4.8983 10.7141 4.41727 10.4094C3.93624 10.1048 3.55184 9.6695 3.30899 9.15449C3.06615 8.63947 2.97488 8.06598 3.04586 7.50102C3.11684 6.93607 3.34714 6.40298 3.70984 5.96404C4.07254 5.52511 4.55266 5.19845 5.09411 5.02225C5.63556 4.84605 6.21597 4.82758 6.76753 4.96899C7.31909 5.11041 7.81901 5.40587 8.20889 5.82085C8.59877 6.23583 8.86249 6.7532 8.96926 7.3125" stroke="#7C7C7C" stroke-width="1.5" stroke-linecap="round" stroke-linejoin="round"/>
<path d="M15.832 7.3125C15.9388 6.7532 16.2025 6.23583 16.5924 5.82085C16.9823 5.40587 17.4822 5.11041 18.0338 4.96899C18.5853 4.82758 19.1657 4.84605 19.7072 5.02225C20.2486 5.19845 20.7288 5.52511 21.0914 5.96404C21.4541 6.40298 21.6844 6.93607 21.7554 7.50102C21.8264 8.06598 21.7351 8.63947 21.4923 9.15449C21.2494 9.6695 20.8651 10.1048 20.384 10.4094C19.903 10.7141 19.3452 10.8756 18.7758 10.875" stroke="#7C7C7C" stroke-width="1.5" stroke-linecap="round" stroke-linejoin="round"/>
</svg>
