<svg width="22" height="22" viewBox="0 0 22 22" fill="none" xmlns="http://www.w3.org/2000/svg">
<path d="M18.334 19.25V17.417C18.334 16.4445 17.9476 15.5117 17.26 14.8241C16.5723 14.1364 15.6395 13.75 14.667 13.75H7.33399C6.36144 13.75 5.42873 14.1364 4.74103 14.8241C4.05334 15.5117 3.66699 16.4445 3.66699 17.417V19.25M11 10.083C11.4866 10.091 11.9699 10.0021 12.4218 9.8215C12.8737 9.64085 13.2851 9.37206 13.632 9.03079C13.979 8.68953 14.2545 8.28262 14.4426 7.83379C14.6307 7.38495 14.7275 6.90316 14.7275 6.41651C14.7275 5.92986 14.6307 5.44807 14.4426 4.99924C14.2545 4.5504 13.979 4.14349 13.632 3.80223C13.2851 3.46097 12.8737 3.19218 12.4218 3.01153C11.9699 2.83087 11.4866 2.74198 11 2.75001C10.0381 2.7659 9.1209 3.15918 8.44626 3.84505C7.77162 4.53092 7.39355 5.45445 7.39355 6.41651C7.39355 7.37857 7.77162 8.3021 8.44626 8.98797C9.1209 9.67385 10.0381 10.0671 11 10.083Z" stroke="#7C7C7C" stroke-width="1.5" stroke-linecap="round" stroke-linejoin="round"/>
</svg>
