<svg width="12" height="13" viewBox="0 0 12 13" fill="none" xmlns="http://www.w3.org/2000/svg">
<path d="M11.2123 5.06563C11.1654 4.91796 11.0749 4.78792 10.9528 4.69256C10.8307 4.59721 10.6826 4.54098 10.528 4.53125L7.74358 4.33906L6.71233 1.7375C6.65602 1.59425 6.55801 1.4712 6.43098 1.38429C6.30395 1.29737 6.15375 1.25059 5.99983 1.25C5.84592 1.25059 5.69572 1.29737 5.56869 1.38429C5.44166 1.4712 5.34364 1.59425 5.28733 1.7375L4.23733 4.35312L1.47171 4.53125C1.31726 4.54161 1.16947 4.59807 1.04746 4.69334C0.925449 4.78861 0.834833 4.91829 0.787334 5.06563C0.738556 5.21521 0.735706 5.37598 0.779151 5.52721C0.822597 5.67843 0.910346 5.81317 1.03108 5.91406L3.15921 7.71406L2.5264 10.2031C2.48261 10.3715 2.49049 10.5492 2.54901 10.713C2.60753 10.8769 2.71398 11.0193 2.85452 11.1219C2.99094 11.2198 3.15348 11.2748 3.32132 11.2798C3.48917 11.2848 3.65469 11.2396 3.79671 11.15L5.99515 9.75781H6.00452L8.37171 11.2531C8.49314 11.332 8.63471 11.3743 8.77952 11.375C8.89776 11.3741 9.01422 11.346 9.11993 11.2931C9.22565 11.2401 9.31781 11.1636 9.38934 11.0694C9.46086 10.9753 9.50985 10.866 9.53252 10.7499C9.5552 10.6339 9.55097 10.5142 9.52015 10.4L8.84983 7.67656L10.9686 5.91406C11.0893 5.81317 11.1771 5.67843 11.2205 5.52721C11.264 5.37598 11.2611 5.21521 11.2123 5.06563Z" fill="#CF9A17"/>
</svg>
